<?xml version="1.0" encoding="UTF-8" standalone="no"?>
<!-- Created with Inkscape (http://www.inkscape.org/) -->

<svg
   xmlns:dc="http://purl.org/dc/elements/1.1/"
   xmlns:cc="http://creativecommons.org/ns#"
   xmlns:rdf="http://www.w3.org/1999/02/22-rdf-syntax-ns#"
   xmlns:svg="http://www.w3.org/2000/svg"
   xmlns="http://www.w3.org/2000/svg"
   xmlns:sodipodi="http://sodipodi.sourceforge.net/DTD/sodipodi-0.dtd"
   xmlns:inkscape="http://www.inkscape.org/namespaces/inkscape"
   width="210mm"
   height="297mm"
   viewBox="0 0 210 297"
   version="1.1"
   id="svg8"
   inkscape:version="0.92.4 (f8dce91, 2019-08-02)"
   sodipodi:docname="cabinet.svg">
  <defs
     id="defs2" />
  <sodipodi:namedview
     id="base"
     pagecolor="#ffffff"
     bordercolor="#666666"
     borderopacity="1.0"
     inkscape:pageopacity="0.0"
     inkscape:pageshadow="2"
     inkscape:zoom="0.7"
     inkscape:cx="156.00932"
     inkscape:cy="548.12172"
     inkscape:document-units="mm"
     inkscape:current-layer="layer1"
     showgrid="false"
     inkscape:window-width="1853"
     inkscape:window-height="1136"
     inkscape:window-x="67"
     inkscape:window-y="27"
     inkscape:window-maximized="1" />
  <metadata
     id="metadata5">
    <rdf:RDF>
      <cc:Work
         rdf:about="">
        <dc:format>image/svg+xml</dc:format>
        <dc:type
           rdf:resource="http://purl.org/dc/dcmitype/StillImage" />
        <dc:title></dc:title>
      </cc:Work>
    </rdf:RDF>
  </metadata>
  <g
     inkscape:label="Calque 1"
     inkscape:groupmode="layer"
     id="layer1">
    <path
       style="fill:#26ad23;stroke-width:0.26458335;stroke:none;stroke-opacity:1;fill-opacity:1"
       d="m 80.490025,188.26631 c -0.43656,-0.19444 -1.03187,-0.62029 -1.32292,-0.94632 -0.50746,-0.56847 -0.53234,-1.02509 -0.60666,-11.13459 l -0.0775,-10.54182 -8.12458,-0.0802 c -8.11451,-0.0801 -8.1264,-0.0811 -9.5798,-0.76589 -1.70319,-0.80255 -3.38546,-2.44774 -4.26812,-4.17407 l -0.62667,-1.22565 V 96.691518 33.985266 l 0.61411,-1.15078 c 0.93509,-1.75228 2.58669,-3.38766 4.24288,-4.20123 l 1.49301,-0.73341 h 44.846885 c 44.19291,0 44.86776,0.008 46.27959,0.52917 1.7996,0.66467 3.80612,2.44711 4.73348,4.20486 l 0.71297,1.35139 0.0683,62.359762 0.0683,62.359762 -0.54749,1.46329 c -0.69571,1.85944 -2.44062,3.67535 -4.42567,4.60573 l -1.5135,0.70937 -8.13594,0.0803 -8.13594,0.0803 -0.009,5.74058 c -0.0196,12.53681 -0.10509,15.23815 -0.50109,15.83432 -0.90367,1.36046 -3.16372,1.70329 -4.34566,0.6592 -1.20464,-1.06414 -1.22969,-1.30988 -1.22969,-12.06273 v -10.19959 h -2.77813 -2.77812 v 10.52446 c 0,11.68313 0.0445,11.37731 -1.76405,12.13295 -1.09636,0.45809 -2.64667,0.13012 -3.41946,-0.7234 -0.4767,-0.52649 -0.50923,-1.15747 -0.57979,-11.2459 l -0.0747,-10.68811 H 107.33663 95.968155 v 10.33188 c 0,11.50067 0.007,11.45294 -1.7462,12.28479 -0.81558,0.38702 -1.14092,0.41355 -1.98184,0.1616 -0.55334,-0.16578 -1.25059,-0.61227 -1.54944,-0.9922 -0.52745,-0.67055 -0.54336,-0.99956 -0.54336,-11.23842 v -10.54765 h -2.77812 -2.77813 v 10.06266 c 0,10.58831 -0.0604,11.19236 -1.22025,12.19904 -0.72385,0.62826 -1.96692,0.79618 -2.88079,0.38913 z"
       id="path866"
       inkscape:export-xdpi="12"
       inkscape:export-ydpi="12" />
    <path
       style="fill:#ffffff;stroke-width:0.26458335;stroke:none;stroke-opacity:1;fill-opacity:0.94117647"
       d="m 151.52698,159.33121 c 0.5073,-0.25444 1.07109,-0.76027 1.25287,-1.12407 0.26138,-0.52311 0.33132,-13.39104 0.33441,-61.522902 0.004,-56.910372 -0.0254,-60.903912 -0.44698,-61.515622 -0.24799,-0.3598 -0.63494,-0.79923 -0.8599,-0.9765 -0.55636,-0.43842 -87.763395,-0.48955 -88.723675,-0.052 -0.3466,0.15792 -0.82845,0.62278 -1.07078,1.03301 -0.40765,0.69009 -0.44061,5.30483 -0.44061,61.698802 0,55.886702 0.0358,61.004022 0.43082,61.567992 0.97885,1.3975 -1.18794,1.33328 45.342105,1.34397 40.66827,0.009 43.31462,-0.0177 44.18174,-0.45266 z"
       id="path864" />
    <path
       style="fill:#26ad23;stroke-width:0.26458335;stroke:none;stroke-opacity:1;fill-opacity:1"
       d="m 68.768475,153.7933 c -1.76965,-0.86709 -1.63991,3.63597 -1.63991,-56.916872 0,-37.006552 0.089,-55.262452 0.27214,-55.787642 0.14967,-0.42935 0.61453,-0.9829 1.03301,-1.2301 0.70646,-0.41732 3.49894,-0.44946 39.044955,-0.44946 h 38.28407 l 0.89958,0.89958 0.89959,0.89958 v 55.359292 c 0,55.142352 -0.002,55.362692 -0.53628,56.227022 -0.29496,0.47725 -0.8976,0.99368 -1.3392,1.14762 -0.55003,0.19174 -12.65221,0.27976 -38.42362,0.27947 -34.121725,-2.7e-4 -37.701955,-0.0402 -38.494335,-0.42849 z"
       id="path862"
       inkscape:export-xdpi="12"
       inkscape:export-ydpi="12" />
    <path
       style="fill:#fffffd;stroke-width:0.26458335;stroke:none;stroke-opacity:1;fill-opacity:0.94117647"
       d="M 141.74107,96.684868 V 45.230056 H 107.34524 72.949405 V 96.690178 148.1503 l 25.06927,0.0675 c 13.788105,0.0371 29.266225,0.0347 34.395835,-0.005 l 9.32656,-0.0728 z"
       id="path860" />
    <path
       style="fill:#26ad23;stroke-width:0.26458335;stroke:none;stroke-opacity:1;fill-opacity:1"
       d="m 85.729455,142.28001 c -0.66269,-0.32018 -1.40345,-1.71173 -1.40198,-2.63369 10e-4,-0.89313 0.94382,-2.3112 1.73615,-2.61244 0.41975,-0.15959 8.54832,-0.25799 21.311975,-0.25799 22.64461,0 21.73781,-0.0634 22.58704,1.57884 0.75816,1.46613 0.37903,3.03475 -0.91879,3.80139 -0.67974,0.40153 -2.60752,0.43902 -21.73943,0.4227 -14.231845,-0.0121 -21.180825,-0.10838 -21.574965,-0.29881 z"
       id="path858"
       inkscape:export-xdpi="12"
       inkscape:export-ydpi="12" />
    <path
       style="fill:#26ad23;stroke-width:0.26458335;stroke:none;stroke-opacity:1;fill-opacity:1"
       d="m 85.981805,130.94987 c -0.80992,-0.32895 -1.65313,-1.78952 -1.65433,-2.86554 -7.9e-4,-0.65601 0.23279,-1.12013 0.89859,-1.78594 l 0.89959,-0.89958 h 21.188955 21.18895 l 0.86407,0.77204 c 0.76011,0.67917 0.86407,0.9331 0.86407,2.11066 0,1.11013 -0.12521,1.46382 -0.73354,2.07222 l -0.73355,0.73362 -21.09458,0.0518 c -12.217545,0.03 -21.344405,-0.0496 -21.688225,-0.1893 z"
       id="path856"
       inkscape:export-xdpi="12"
       inkscape:export-ydpi="12" />
    <path
       style="fill:#26ad23;stroke-width:0.26458335;stroke:none;stroke-opacity:1;fill-opacity:1"
       d="m 85.997205,119.45202 c -2.35008,-1.01297 -2.09887,-4.72811 0.36599,-5.41258 0.66543,-0.18479 7.84396,-0.27985 21.206595,-0.28082 18.33506,-10e-4 20.28675,0.0394 21.13307,0.44099 2.16887,1.0292 2.15686,4.17698 -0.0199,5.20991 -0.8187,0.3885 -2.97429,0.43075 -21.37676,0.41892 -16.742985,-0.0108 -20.619555,-0.0792 -21.309015,-0.37642 z"
       id="path854"
       inkscape:export-xdpi="12"
       inkscape:export-ydpi="12" />
    <path
       style="fill:#26ad23;stroke-width:0.26458335;stroke:none;stroke-opacity:1;fill-opacity:1"
       d="m 82.304105,107.65284 c -1.86187,-0.71996 -3.61779,-2.33827 -4.51125,-4.15771 -0.64931,-1.32225 -0.74246,-1.8157 -0.74246,-3.932912 0,-2.80087 -0.39109,-1.91384 5.81514,-13.189455 2.00241,-3.638017 5.01011,-9.114897 6.68379,-12.170837 1.67367,-3.05593 3.34194,-6.09203 3.70726,-6.74687 0.5913,-1.05992 2.24149,-4.05603 5.89467,-10.70249 1.361055,-2.47623 2.587165,-3.78241 4.377875,-4.66374 1.10118,-0.54197 1.69105,-0.64106 3.81606,-0.64106 2.11422,0 2.71721,0.10026 3.79555,0.63113 2.42163,1.19217 3.10807,2.18693 8.96726,12.99491 1.11606,2.05872 12.0781,21.960638 12.82452,23.283332 2.10512,3.730356 4.15007,7.63675 4.46498,8.52931 0.20612,0.58422 0.37477,1.81669 0.37477,2.73882 0,3.319542 -1.80764,6.277712 -4.70576,7.700872 l -1.51195,0.74246 -23.94479,0.0552 c -23.337395,0.0538 -23.979315,0.0419 -25.305665,-0.47099 z"
       id="path852"
       inkscape:export-xdpi="12"
       inkscape:export-ydpi="12" />
    <path
       style="fill:#fffffa;stroke-width:0.26458335;stroke:none;stroke-opacity:1;fill-opacity:0.94117647"
       d="m 131.0857,101.44663 c 1.47058,-1.470582 1.41021,-1.657142 -3.25084,-10.046783 -0.32339,-0.582084 -1.89103,-3.439584 -3.48365,-6.35 -4.65853,-8.513201 -13.31002,-24.239521 -14.04045,-25.522141 -0.99123,-1.74059 -1.74152,-2.39156 -2.75511,-2.39041 -1.72315,0.002 -2.28778,0.65406 -5.17338,5.97488 -2.785605,5.13645 -4.052665,7.45292 -5.342255,9.76684 -0.40551,0.7276 -1.75163,3.16838 -2.99138,5.42396 -1.23975,2.25557 -4.2417,7.715878 -6.671,12.134015 -2.4293,4.418137 -4.48048,8.424747 -4.55818,8.903577 -0.17493,1.077962 0.54417,2.400252 1.49565,2.750242 0.39627,0.14576 9.95422,0.25606 23.254985,0.26836 l 22.58218,0.0209 0.93343,-0.93343 z"
       id="path850" />
    <path
       style="fill:#26ad23;stroke-width:0.26458335;stroke:none;stroke-opacity:1;fill-opacity:1"
       d="m 105.36796,95.957828 c -1.39708,-1.39708 -1.29326,-2.13834 0.9189,-6.560811 1.01864,-2.03644 1.85208,-3.758345 1.85208,-3.826457 0,-0.06811 -1.55958,-0.123838 -3.46574,-0.123838 -2.60803,0 -3.6834,-0.10328 -4.34518,-0.41732 -0.895155,-0.424775 -1.714085,-1.720786 -1.714085,-2.712636 0,-0.92974 6.232335,-13.14325 7.024895,-13.76667 1.69465,-1.33301 4.23438,-0.23285 4.52867,1.96174 0.12663,0.94425 -0.0809,1.52088 -1.73612,4.82512 -1.03397,2.06399 -1.87994,3.81383 -1.87994,3.88853 0,0.0747 1.51805,0.14488 3.37344,0.15595 4.01372,0.0239 5.03939,0.30964 5.68813,1.5844 0.25443,0.49995 0.46279,1.16503 0.46302,1.47794 5.3e-4,0.762287 -6.1437,13.056042 -6.83893,13.683712 -0.30114,0.27188 -1.08492,0.55489 -1.74174,0.62892 -1.09524,0.12345 -1.27155,0.0573 -2.1274,-0.79858 z"
       id="path826"
       inkscape:export-xdpi="12"
       inkscape:export-ydpi="12" />
  </g>
</svg>
